{
    "asset" : {
        "generator" : "Khronos glTF Blender I/O v3.2.43",
        "version" : "2.0"
    },
    "scene" : 0,
    "scenes" : [
        {
            "name" : "Scene",
            "nodes" : [
                0
            ]
        }
    ],
    "nodes" : [
        {
            "mesh" : 0,
            "name" : "Cube.003",
            "rotation" : [
                0,
                0.7071068286895752,
                0,
                0.7071068286895752
            ],
            "scale" : [
                0.5288329720497131,
                0.5288329720497131,
                0.5288329720497131
            ],
            "translation" : [
                -0.07015514373779297,
                0.29581671953201294,
                0.25417888164520264
            ]
        }
    ],
    "materials" : [
        {
            "doubleSided" : true,
            "name" : "Material.001",
            "pbrMetallicRoughness" : {
                "baseColorTexture" : {
                    "index" : 0
                },
                "metallicFactor" : 0,
                "roughnessFactor" : 0.5
            }
        }
    ],
    "meshes" : [
        {
            "name" : "Cube.001",
            "primitives" : [
                {
                    "attributes" : {
                        "POSITION" : 0,
                        "NORMAL" : 1,
                        "TEXCOORD_0" : 2
                    },
                    "indices" : 3,
                    "material" : 0
                }
            ]
        }
    ],
    "textures" : [
        {
            "sampler" : 0,
            "source" : 0
        }
    ],
    "images" : [
        {
            "bufferView" : 4,
            "mimeType" : "image/png",
            "name" : "cover 1 compressed"
        }
    ],
    "accessors" : [
        {
            "bufferView" : 0,
            "componentType" : 5126,
            "count" : 270,
            "max" : [
                2.076235055923462,
                1.0533647537231445,
                1.1305028200149536
            ],
            "min" : [
                -2.814692497253418,
                -1,
                -1.1305028200149536
            ],
            "type" : "VEC3"
        },
        {
            "bufferView" : 1,
            "componentType" : 5126,
            "count" : 270,
            "type" : "VEC3"
        },
        {
            "bufferView" : 2,
            "componentType" : 5126,
            "count" : 270,
            "type" : "VEC2"
        },
        {
            "bufferView" : 3,
            "componentType" : 5123,
            "count" : 366,
            "type" : "SCALAR"
        }
    ],
    "bufferViews" : [
        {
            "buffer" : 0,
            "byteLength" : 3240,
            "byteOffset" : 0
        },
        {
            "buffer" : 0,
            "byteLength" : 3240,
            "byteOffset" : 3240
        },
        {
            "buffer" : 0,
            "byteLength" : 2160,
            "byteOffset" : 6480
        },
        {
            "buffer" : 0,
            "byteLength" : 732,
            "byteOffset" : 8640
        },
        {
            "buffer" : 0,
            "byteLength" : 180693,
            "byteOffset" : 9372
        }
    ],
    "samplers" : [
        {
            "magFilter" : 9729,
            "minFilter" : 9987
        }
    ],
    "buffers" : [
        {
            "byteLength" : 190068,
            "uri" : "data:application/octet-stream;base64,"
        }
    ]
}
