{
    "asset" : {
        "generator" : "Khronos glTF Blender I/O v3.2.43",
        "version" : "2.0"
    },
    "scene" : 0,
    "scenes" : [
        {
            "name" : "Scene",
            "nodes" : [
                6
            ]
        }
    ],
    "nodes" : [
        {
            "mesh" : 0,
            "name" : "Radio_Extra_Low_radio_new_0"
        },
        {
            "children" : [
                0
            ],
            "name" : "Radio_Extra_Low",
            "rotation" : [
                0.7071068286895752,
                0,
                0,
                0.7071067094802856
            ]
        },
        {
            "mesh" : 1,
            "name" : "Radio_Main_Low_radio_new_0"
        },
        {
            "children" : [
                2
            ],
            "name" : "Radio_Main_Low",
            "rotation" : [
                0.7071068286895752,
                0,
                0,
                0.7071067094802856
            ]
        },
        {
            "children" : [
                1,
                3
            ],
            "name" : "RootNode"
        },
        {
            "children" : [
                4
            ],
            "name" : "f6a3d66730884ec99fc30884f65ba74c.fbx",
            "rotation" : [
                1,
                0,
                0,
                0
            ],
            "scale" : [
                0.009999999776482582,
                0.009999999776482582,
                0.009999999776482582
            ]
        },
        {
            "children" : [
                5
            ],
            "name" : "Sketchfab_model",
            "rotation" : [
                0.7071068286895752,
                0,
                0,
                0.7071067094802856
            ],
            "scale" : [
                150,
                149.99998474121094,
                149.99998474121094
            ],
            "translation" : [
                -0.0025330781936645508,
                -0.005871634464710951,
                0
            ]
        }
    ],
    "materials" : [
        {
            "doubleSided" : true,
            "emissiveFactor" : [
                1,
                1,
                1
            ],
            "emissiveTexture" : {
                "index" : 0
            },
            "name" : "radio_new",
            "normalTexture" : {
                "index" : 1
            },
            "occlusionTexture" : {
                "index" : 2
            },
            "pbrMetallicRoughness" : {
                "baseColorTexture" : {
                    "index" : 3
                },
                "metallicFactor" : 0,
                "metallicRoughnessTexture" : {
                    "index" : 2
                }
            }
        }
    ],
    "meshes" : [
        {
            "name" : "Radio_Extra_Low_radio_new_0",
            "primitives" : [
                {
                    "attributes" : {
                        "POSITION" : 0,
                        "NORMAL" : 1,
                        "TEXCOORD_0" : 2
                    },
                    "indices" : 3,
                    "material" : 0
                }
            ]
        },
        {
            "name" : "Radio_Main_Low_radio_new_0",
            "primitives" : [
                {
                    "attributes" : {
                        "POSITION" : 4,
                        "NORMAL" : 5,
                        "TEXCOORD_0" : 6
                    },
                    "indices" : 7,
                    "material" : 0
                }
            ]
        }
    ],
    "textures" : [
        {
            "sampler" : 0,
            "source" : 0
        },
        {
            "sampler" : 0,
            "source" : 1
        },
        {
            "sampler" : 0,
            "source" : 2
        },
        {
            "sampler" : 0,
            "source" : 3
        }
    ],
    "images" : [
        {
            "bufferView" : 4,
            "mimeType" : "image/png",
            "name" : "Image_0"
        },
        {
            "bufferView" : 5,
            "mimeType" : "image/png",
            "name" : "Image_1"
        },
        {
            "bufferView" : 6,
            "mimeType" : "image/png",
            "name" : "Image_2"
        },
        {
            "bufferView" : 7,
            "mimeType" : "image/png",
            "name" : "Image_3"
        }
    ],
    "accessors" : [
        {
            "bufferView" : 0,
            "componentType" : 5126,
            "count" : 768,
            "max" : [
                0.08602964133024216,
                0.5871626138687134,
                0.019248591735959053
            ],
            "min" : [
                -0.051983922719955444,
                0.22586967051029205,
                -0.04796460270881653
            ],
            "type" : "VEC3"
        },
        {
            "bufferView" : 1,
            "componentType" : 5126,
            "count" : 768,
            "type" : "VEC3"
        },
        {
            "bufferView" : 2,
            "componentType" : 5126,
            "count" : 768,
            "type" : "VEC2"
        },
        {
            "bufferView" : 3,
            "componentType" : 5123,
            "count" : 1740,
            "type" : "SCALAR"
        },
        {
            "bufferView" : 8,
            "componentType" : 5126,
            "count" : 1583,
            "max" : [
                0.2083449810743332,
                0.25917577743530273,
                0.09210927784442902
            ],
            "min" : [
                -0.2083449810743332,
                -5.64006648660504e-18,
                -0.09210927784442902
            ],
            "type" : "VEC3"
        },
        {
            "bufferView" : 9,
            "componentType" : 5126,
            "count" : 1583,
            "type" : "VEC3"
        },
        {
            "bufferView" : 10,
            "componentType" : 5126,
            "count" : 1583,
            "type" : "VEC2"
        },
        {
            "bufferView" : 11,
            "componentType" : 5123,
            "count" : 3642,
            "type" : "SCALAR"
        }
    ],
    "bufferViews" : [
        {
            "buffer" : 0,
            "byteLength" : 9216,
            "byteOffset" : 0
        },
        {
            "buffer" : 0,
            "byteLength" : 9216,
            "byteOffset" : 9216
        },
        {
            "buffer" : 0,
            "byteLength" : 6144,
            "byteOffset" : 18432
        },
        {
            "buffer" : 0,
            "byteLength" : 3480,
            "byteOffset" : 24576
        },
        {
            "buffer" : 0,
            "byteLength" : 21856,
            "byteOffset" : 28056
        },
        {
            "buffer" : 0,
            "byteLength" : 839684,
            "byteOffset" : 49912
        },
        {
            "buffer" : 0,
            "byteLength" : 905333,
            "byteOffset" : 889596
        },
        {
            "buffer" : 0,
            "byteLength" : 861770,
            "byteOffset" : 1794932
        },
        {
            "buffer" : 0,
            "byteLength" : 18996,
            "byteOffset" : 2656704
        },
        {
            "buffer" : 0,
            "byteLength" : 18996,
            "byteOffset" : 2675700
        },
        {
            "buffer" : 0,
            "byteLength" : 12664,
            "byteOffset" : 2694696
        },
        {
            "buffer" : 0,
            "byteLength" : 7284,
            "byteOffset" : 2707360
        }
    ],
    "samplers" : [
        {
            "magFilter" : 9729,
            "minFilter" : 9987
        }
    ],
    "buffers" : [
        {
            "byteLength" : 2714644,
            "uri" : "data:application/octet-stream;base64,"
        }
    ]
}
